<?xml version="1.0" encoding="UTF-8"?>
<svg width="96px" height="96px" viewBox="0 0 96 96" version="1.1" xmlns="http://www.w3.org/2000/svg" xmlns:xlink="http://www.w3.org/1999/xlink">
    <!-- Generator: Sketch 64 (93537) - https://sketch.com -->
    <title>GIA</title>
    <desc>Created with Sketch.</desc>
    <defs>
        <linearGradient x1="63.4750053%" y1="0%" x2="35.4371378%" y2="100%" id="linearGradient-1">
            <stop stop-color="#46CCA1" offset="0%"></stop>
            <stop stop-color="#02C0BF" offset="100%"></stop>
        </linearGradient>
        <linearGradient x1="59.7188549%" y1="0%" x2="39.4965278%" y2="100%" id="linearGradient-2">
            <stop stop-color="#46CCA1" offset="0%"></stop>
            <stop stop-color="#02C0BF" offset="100%"></stop>
        </linearGradient>
        <linearGradient x1="55.1405513%" y1="0%" x2="44.4444444%" y2="100%" id="linearGradient-3">
            <stop stop-color="#46CCA1" offset="0%"></stop>
            <stop stop-color="#02C0BF" offset="100%"></stop>
        </linearGradient>
        <linearGradient x1="53.7767316%" y1="0%" x2="45.9183673%" y2="100%" id="linearGradient-4">
            <stop stop-color="#46CCA1" offset="0%"></stop>
            <stop stop-color="#02C0BF" offset="100%"></stop>
        </linearGradient>
        <linearGradient x1="68.0722508%" y1="0%" x2="30.46875%" y2="100%" id="linearGradient-5">
            <stop stop-color="#46CCA1" offset="0%"></stop>
            <stop stop-color="#02C0BF" offset="100%"></stop>
        </linearGradient>
        <linearGradient x1="96.2649619%" y1="20.1446281%" x2="0%" y2="79.8553719%" id="linearGradient-6">
            <stop stop-color="#46CCA1" offset="0%"></stop>
            <stop stop-color="#02C0BF" offset="100%"></stop>
        </linearGradient>
    </defs>
    <g id="GIA" stroke="none" stroke-width="1" fill="none" fill-rule="evenodd">
        <g id="004-profits" transform="translate(10.000000, 4.000000)" fill-rule="nonzero" stroke="#FFFFFF">
            <path d="M68.3173964,56.621028 L68.3173964,24.7569205 C68.3173964,23.7673519 67.507843,23.08365 66.5183888,23.08365 L59.5562293,23.08365 C58.5667751,23.08365 57.7032515,23.7673519 57.7032515,24.7569205 L57.7032515,53.5083851 C56.5518866,53.5443694 55.4005217,53.6883066 54.285137,53.9581889 L54.285137,34.1488257 C54.285137,33.1592571 53.4396034,32.4395709 52.4501492,32.4395709 L45.4879897,32.4395709 C44.4985355,32.4395709 43.670992,33.141265 43.670992,34.1488257 L43.670992,61.0111139 C41.5301729,64.0158039 40.378808,67.6322272 40.3965904,71.3386112 C40.3965904,81.1983125 48.3843919,89.1868295 58.2249637,89.1868295 C68.0835255,89.1868295 76.0711193,81.1983125 76.0711193,71.3566034 C76.0711193,65.4551764 73.174717,59.9495768 68.3173964,56.621028 Z M61.3012667,26.6820811 L64.7193812,26.6820811 L64.7193812,54.7138595 C63.6219865,54.2820477 62.4706217,53.9581889 61.3012667,53.7782674 L61.3012667,26.6820811 Z M47.2690072,36.038002 L50.6871217,36.038002 L50.6871217,55.1996477 C49.4817866,55.7574045 48.3304217,56.4411064 47.2690072,57.2507534 L47.2690072,36.038002 Z M70.4941957,78.5894499 C67.9216148,82.9255594 63.262185,85.5704063 58.2429537,85.5704063 C50.3812904,85.5704063 44.0128034,79.183191 44.0128034,71.3386112 C44.0128034,65.5811214 47.4848881,60.3813885 52.8099507,58.1863455 C53.0258316,58.1503612 53.2237225,58.0604004 53.4036232,57.9524475 C54.9507698,57.3766985 56.6058568,57.088824 58.2609438,57.088824 C58.6387354,57.088824 58.9985369,57.1068162 59.3763285,57.1428005 L59.3943186,57.1428005 C61.5531278,57.3047299 63.6579667,57.9704396 65.5109445,59.0859533 C72.2750333,63.098204 74.5059827,71.8243994 70.4941957,78.5894499 Z" id="Shape" fill="url(#linearGradient-1)"></path>
            <path d="M57.6915712,69.8183593 C56.45245,69.8183593 55.461153,68.8096317 55.461153,67.5487222 C55.461153,66.2878127 56.4347482,65.2790851 57.6738695,65.2610721 C58.9129907,65.2610721 59.9042877,66.2878127 59.9042877,67.5307092 C59.9042877,68.5214238 60.7008656,69.3320085 61.6744609,69.3320085 C62.6657578,69.3320085 63.4623358,68.5394368 63.4800375,67.5307092 C63.4800375,65.1169682 62.0284955,62.9373961 59.815779,62.0547595 L59.815779,60.5596811 C59.815779,59.5689665 59.0192011,58.7583818 58.0456058,58.7583818 C57.0720106,58.7583818 56.2754327,59.5689665 56.2754327,60.5596811 L56.2754327,61.8566165 C53.1953313,62.6672012 51.3366495,65.8735139 52.1332274,69.0077746 C52.7704898,71.6016455 55.0540132,73.4029448 57.6738695,73.4029448 C58.895289,73.4029448 59.8865859,74.4296854 59.8865859,75.6725819 C59.8865859,76.9154783 58.8775872,77.9242059 57.6561677,77.9242059 C56.4347482,77.9242059 55.4434513,76.8974654 55.4434513,75.6545689 C55.4434513,74.6638543 54.6468733,73.8532696 53.6732781,73.8532696 C52.6996828,73.8532696 51.9208066,74.6458413 51.9385084,75.6365559 L51.9385084,75.6545689 C51.9562101,78.3204918 53.7263833,80.6621808 56.2577309,81.3286615 L56.2577309,82.1392462 C56.2577309,83.1299608 57.0543089,83.9405455 58.0279041,83.9405455 C59.0014993,83.9405455 59.7980773,83.1299608 59.7980773,82.1392462 L59.7980773,81.1485316 C62.7719682,79.9596741 64.2235102,76.5552185 63.0728977,73.5470487 C62.2055128,71.2954247 60.0636033,69.8183593 57.6915712,69.8183593 Z" id="Path" fill="url(#linearGradient-2)"></path>
            <path d="M23.9283907,47.2165568 L16.9926252,47.2165568 C16.0145045,47.2165568 15.2142239,48.0168374 15.2142239,48.9949582 L15.2142239,76.91586 C15.2142239,77.8939807 16.0145045,78.6942614 16.9926252,78.6942614 L23.9283907,78.6942614 C24.9065114,78.6942614 25.706792,77.8939807 25.706792,76.91586 L25.706792,48.9949582 C25.706792,48.0168374 24.9065114,47.2165568 23.9283907,47.2165568 Z M22.1499893,75.3152987 L18.7710266,75.3152987 L18.7710266,50.7733596 L22.1499893,50.7733596 L22.1499893,75.3152987 Z" id="Shape" fill="url(#linearGradient-3)"></path>
            <path d="M38.6179861,41.9702727 L31.6822207,41.9702727 C30.7040999,41.9702727 29.9038193,42.7924516 29.9038193,43.7973368 L29.9038193,76.8671972 C29.9038193,77.8720825 30.7040999,78.6942614 31.6822207,78.6942614 L38.6179861,78.6942614 C39.5961069,78.6942614 40.3963875,77.8720825 40.3963875,76.8671972 L40.3963875,43.7973368 C40.3963875,42.7924516 39.5961069,41.9702727 38.6179861,41.9702727 Z M36.8395847,75.0401331 L33.4606221,75.0401331 L33.4606221,45.6244009 L36.8395847,45.6244009 L36.8395847,75.0401331 Z" id="Shape" fill="url(#linearGradient-4)"></path>
            <path d="M10.288052,61.9061523 L3.35228661,61.9061523 C2.37416585,61.9061523 1.57388523,62.7363335 1.57388523,63.7509994 L1.57388523,76.8494142 C1.57388523,77.8640801 2.37416585,78.6942614 3.35228661,78.6942614 L10.288052,78.6942614 C11.2661728,78.6942614 12.0664534,77.8640801 12.0664534,76.8494142 L12.0664534,63.7509994 C12.0664534,62.7363335 11.2661728,61.9061523 10.288052,61.9061523 Z M8.50965064,75.1890518 L5.130688,75.1890518 L5.130688,65.5958466 L8.50965064,65.5958466 L8.50965064,75.1890518 Z" id="Shape" fill="url(#linearGradient-5)"></path>
            <path d="M67.998204,0 L55.8409631,0.0178731121 C54.8634072,0 54.0635887,0.804290046 54.045815,1.78731121 C54.0280412,2.77033238 54.8278597,3.57462243 55.8054156,3.59249554 C55.8231894,3.59249554 55.8231894,3.59249554 55.8409631,3.59249554 L63.7147317,3.57462243 L44.4302195,22.8954566 L37.6939705,16.1751665 C37.3562694,15.8534505 36.894152,15.6925925 36.4320347,15.7104656 C35.9699173,15.6925925 35.5078,15.8534505 35.1700989,16.1751665 L1.04451042,50.4915418 C0.351334405,51.1885931 0.351334405,52.3145992 1.04451042,52.9937775 C1.38221156,53.3333666 1.82655516,53.5120977 2.30644624,53.5120977 C2.78633733,53.5120977 3.23068093,53.3333666 3.56838207,52.9937775 L36.4498084,19.92852 L43.1860574,26.7560489 C43.5059848,27.1135111 43.9681021,27.3101153 44.4479932,27.3279885 C44.9278843,27.3101153 45.3722279,27.095638 45.7099291,26.7560489 L66.2208296,6.11260435 L66.2030559,14.0661392 C66.2030559,15.0670335 66.9851006,15.8713236 67.9804303,15.9070698 C68.9757599,15.8891967 69.7578047,15.0670335 69.7578047,14.0661392 L69.7755784,1.80518433 C69.7755784,0.822163158 68.9757599,0 67.998204,0 Z" id="Path" fill="url(#linearGradient-6)"></path>
        </g>
    </g>
</svg>